<mxfile host="app.diagrams.net" modified="2022-03-01T08:50:59.579Z" agent="5.0 (Windows)" etag="otxxtZTd8_k1UpgSrmTC" version="16.6.4" type="github">
  <diagram id="a2YSa81hQZyHhqOlbdZl" name="Page-1">
    <mxGraphModel dx="695" dy="448" grid="1" gridSize="10" guides="1" tooltips="1" connect="1" arrows="1" fold="1" page="1" pageScale="1" pageWidth="827" pageHeight="1169" background="#006600" math="0" shadow="0">
      <root>
        <mxCell id="0" />
        <mxCell id="1" parent="0" />
        <mxCell id="BZAy1Z51T8F9wlz8whab-1" value="基于图论的口令安全机制研究" style="rounded=0;whiteSpace=wrap;html=1;" vertex="1" parent="1">
          <mxGeometry x="110" y="50" width="180" height="60" as="geometry" />
        </mxCell>
        <mxCell id="BZAy1Z51T8F9wlz8whab-2" value="第一章绪论" style="whiteSpace=wrap;html=1;aspect=fixed;" vertex="1" parent="1">
          <mxGeometry x="100" y="180" width="100" height="100" as="geometry" />
        </mxCell>
      </root>
    </mxGraphModel>
  </diagram>
</mxfile>
